<mxfile host="app.diagrams.net" modified="2021-11-05T14:01:58.102Z" agent="5.0 (X11; Linux x86_64) AppleWebKit/537.36 (KHTML, like Gecko) Chrome/95.0.4638.54 Safari/537.36" etag="OdGdOkE6kKwS1mX9rvLI" version="15.6.8" type="github" pages="3">
  <diagram name="Page-1" id="2cc2dc42-3aac-f2a9-1cec-7a8b7cbee084">
    <mxGraphModel dx="2450" dy="805" grid="1" gridSize="10" guides="1" tooltips="1" connect="1" arrows="1" fold="1" page="1" pageScale="1" pageWidth="1100" pageHeight="850" background="#ffffff" math="0" shadow="0">
      <root>
        <mxCell id="0" />
        <mxCell id="1" parent="0" />
        <mxCell id="7026571954dc6520-1" value="h" style="strokeWidth=1;shadow=0;dashed=0;align=center;html=1;shape=mxgraph.mockup.containers.browserWindow;rSize=0;strokeColor=#666666;mainText=,;recursiveResize=0;rounded=0;labelBackgroundColor=none;fontFamily=Verdana;fontSize=12" parent="1" vertex="1">
          <mxGeometry x="-10" y="40" width="1100" height="1370" as="geometry" />
        </mxCell>
        <mxCell id="7026571954dc6520-2" value="Page 1" style="strokeWidth=1;shadow=0;dashed=0;align=center;html=1;shape=mxgraph.mockup.containers.anchor;fontSize=17;fontColor=#666666;align=left;" parent="7026571954dc6520-1" vertex="1">
          <mxGeometry x="60" y="12" width="110" height="26" as="geometry" />
        </mxCell>
        <mxCell id="7026571954dc6520-3" value="https://www.default.com" style="strokeWidth=1;shadow=0;dashed=0;align=center;html=1;shape=mxgraph.mockup.containers.anchor;rSize=0;fontSize=17;fontColor=#666666;align=left;" parent="7026571954dc6520-1" vertex="1">
          <mxGeometry x="130" y="60" width="250" height="26" as="geometry" />
        </mxCell>
        <mxCell id="7026571954dc6520-15" value="" style="verticalLabelPosition=bottom;shadow=0;dashed=0;align=center;html=1;verticalAlign=top;strokeWidth=1;shape=mxgraph.mockup.markup.line;strokeColor=#999999;rounded=0;labelBackgroundColor=none;fillColor=#ffffff;fontFamily=Verdana;fontSize=12;fontColor=#000000;" parent="7026571954dc6520-1" vertex="1">
          <mxGeometry y="310" width="1050" height="20" as="geometry" />
        </mxCell>
        <mxCell id="7026571954dc6520-17" value="Lorem ipsum dolor sit amet, consectetur adipisicing elit, sed do eiusmod tempor incididunt ut labore et dolore magna aliqua. Ut enim ad minim veniam, quis nostrud exercitation ullamco laboris nisi ut aliquip ex ea commodo consequat. Duis aute irure dolor in reprehenderit in voluptate velit esse cillum dolore eu fugiat nulla pariatur. Excepteur sint occaecat cupidatat non proident, sunt in culpa qui officia deserunt mollit anim id est laborum.&#xa;Sed ut perspiciatis unde omnis iste natus error sit voluptatem accusantium doloremque laudantium, totam rem aperiam, eaque ipsa quae ab illo inventore veritatis et quasi architecto beatae vitae dicta sunt explicabo. Nemo enim ipsam voluptatem quia voluptas sit aspernatur aut odit aut fugit, sed quia consequuntur magni dolores eos qui ratione voluptatem sequi nesciunt. Neque porro quisquam est, qui dolorem ipsum quia dolor sit amet, consectetur, adipisci velit, sed quia non numquam eius modi tempora incidunt ut labore et dolore magnam aliquam quaerat voluptatem. Ut enim ad minima veniam, quis nostrum exercitationem ullam corporis suscipit laboriosam, nisi ut aliquid ex ea commodi consequatur? Quis autem vel eum iure reprehenderit qui in ea voluptate velit esse quam nihil molestiae consequatur, vel illum qui dolorem eum fugiat quo voluptas nulla pariatur?" style="text;spacingTop=-5;whiteSpace=wrap;html=1;align=left;fontSize=12;fontFamily=Helvetica;fillColor=none;strokeColor=none;rounded=0;shadow=1;labelBackgroundColor=none;" parent="7026571954dc6520-1" vertex="1">
          <mxGeometry x="20" y="370" width="500" height="240" as="geometry" />
        </mxCell>
        <mxCell id="7026571954dc6520-21" value="" style="verticalLabelPosition=bottom;shadow=0;dashed=0;align=center;html=1;verticalAlign=top;strokeWidth=1;shape=mxgraph.mockup.markup.line;strokeColor=#999999;rounded=0;labelBackgroundColor=none;fillColor=#ffffff;fontFamily=Verdana;fontSize=12;fontColor=#000000;" parent="7026571954dc6520-1" vertex="1">
          <mxGeometry y="580" width="1050" height="20" as="geometry" />
        </mxCell>
        <mxCell id="7026571954dc6520-31" value="&amp;nbsp; &amp;nbsp; &amp;nbsp; &amp;nbsp; &amp;nbsp; &amp;nbsp; &amp;nbsp; &amp;nbsp; &amp;nbsp; &amp;nbsp; &amp;nbsp; &amp;nbsp; &amp;nbsp; &amp;nbsp; &amp;nbsp; Our rooms" style="text;html=1;points=[];align=left;verticalAlign=top;spacingTop=-4;fontSize=15;fontFamily=Verdana;fontStyle=1" parent="7026571954dc6520-1" vertex="1">
          <mxGeometry x="30" y="620" width="290" height="30" as="geometry" />
        </mxCell>
        <mxCell id="XnPeuqubSNgGdzfEI4wK-2" value="logo&amp;nbsp;" style="ellipse;shape=doubleEllipse;whiteSpace=wrap;html=1;aspect=fixed;" vertex="1" parent="7026571954dc6520-1">
          <mxGeometry x="420" y="175" width="85" height="85" as="geometry" />
        </mxCell>
        <mxCell id="XnPeuqubSNgGdzfEI4wK-5" value="Home&amp;nbsp; &amp;nbsp; &amp;nbsp; &amp;nbsp; Our rooms&amp;nbsp; &amp;nbsp; &amp;nbsp; &amp;nbsp; &amp;nbsp; &amp;nbsp;Gallery&amp;nbsp; &amp;nbsp; &amp;nbsp; &amp;nbsp; &amp;nbsp;Contact&amp;nbsp; &amp;nbsp; &amp;nbsp; &amp;nbsp; Reserve" style="rounded=0;whiteSpace=wrap;html=1;" vertex="1" parent="7026571954dc6520-1">
          <mxGeometry x="80" y="120" width="810" height="30" as="geometry" />
        </mxCell>
        <mxCell id="XnPeuqubSNgGdzfEI4wK-6" value="Hotel name" style="rounded=0;whiteSpace=wrap;html=1;" vertex="1" parent="7026571954dc6520-1">
          <mxGeometry x="330" y="260" width="250" height="50" as="geometry" />
        </mxCell>
        <mxCell id="XnPeuqubSNgGdzfEI4wK-8" value="hotel description" style="rounded=0;whiteSpace=wrap;html=1;" vertex="1" parent="7026571954dc6520-1">
          <mxGeometry x="30" y="330" width="120" height="30" as="geometry" />
        </mxCell>
        <mxCell id="XnPeuqubSNgGdzfEI4wK-9" value="Photo" style="html=1;strokeColor=none;fillColor=#0079D6;labelPosition=center;verticalLabelPosition=middle;verticalAlign=top;align=center;fontSize=12;outlineConnect=0;spacingTop=-6;fontColor=#FFFFFF;sketch=0;shape=mxgraph.sitemap.photo;" vertex="1" parent="7026571954dc6520-1">
          <mxGeometry x="570" y="340" width="440" height="240" as="geometry" />
        </mxCell>
        <mxCell id="7026571954dc6520-36" value="Lorem ipsum dolor sit amet, consectetur adipisicing elit, sed do eiusmod tempor incididunt ut labore et dolore magna aliqua. Ut enim ad minim veniam, quis nostrud exercitation ullamco laboris nisi ut aliquip ex ea commodo consequat. Duis aute irure dolor in reprehenderit in voluptate velit esse cillum dolore eu fugiat nulla pariatur. Excepteur sint occaecat cupidatat non proident, sunt in culpa qui officia deserunt mollit anim id est laborum.&lt;br&gt;Sed ut perspiciatis unde omnis iste natus error sit voluptatem accusantium doloremque laudantium, totam rem aperiam, eaque ipsa quae ab illo inventore veritatis et quasi architecto beatae vitae dicta sunt explicabo.&amp;nbsp;" style="text;spacingTop=-5;whiteSpace=wrap;html=1;align=left;fontSize=12;fontFamily=Helvetica;fillColor=none;strokeColor=none;rounded=0;shadow=1;labelBackgroundColor=none;" parent="7026571954dc6520-1" vertex="1">
          <mxGeometry x="570" y="667.5" width="490" height="212.5" as="geometry" />
        </mxCell>
        <mxCell id="XnPeuqubSNgGdzfEI4wK-11" value="Photo" style="html=1;strokeColor=none;fillColor=#0079D6;labelPosition=center;verticalLabelPosition=middle;verticalAlign=top;align=center;fontSize=12;outlineConnect=0;spacingTop=-6;fontColor=#FFFFFF;sketch=0;shape=mxgraph.sitemap.photo;" vertex="1" parent="7026571954dc6520-1">
          <mxGeometry x="20" y="660" width="370" height="230" as="geometry" />
        </mxCell>
        <mxCell id="XnPeuqubSNgGdzfEI4wK-17" value="Reservation" style="labelPosition=center;verticalLabelPosition=middle;align=center;html=1;shape=mxgraph.basic.button;dx=10;fontSize=18;" vertex="1" parent="7026571954dc6520-1">
          <mxGeometry x="130" y="850" width="150" height="40" as="geometry" />
        </mxCell>
        <mxCell id="XnPeuqubSNgGdzfEI4wK-12" value="" style="rounded=0;whiteSpace=wrap;html=1;" vertex="1" parent="1">
          <mxGeometry x="-10" y="960" width="1090" height="740" as="geometry" />
        </mxCell>
        <mxCell id="XnPeuqubSNgGdzfEI4wK-13" value="We have also great restaurants" style="text;html=1;strokeColor=none;fillColor=none;align=center;verticalAlign=middle;whiteSpace=wrap;rounded=0;fontStyle=1;fontSize=18;" vertex="1" parent="1">
          <mxGeometry x="260" y="990" width="430" height="30" as="geometry" />
        </mxCell>
        <mxCell id="XnPeuqubSNgGdzfEI4wK-15" value="&lt;h1&gt;About restaurant&lt;/h1&gt;&lt;div&gt;......................................&lt;/div&gt;&lt;div&gt;......................................&lt;/div&gt;&lt;div&gt;...................................&lt;/div&gt;&lt;div&gt;&lt;br&gt;&lt;/div&gt;" style="text;html=1;strokeColor=none;fillColor=none;spacing=5;spacingTop=-20;whiteSpace=wrap;overflow=hidden;rounded=0;fontSize=18;" vertex="1" parent="1">
          <mxGeometry x="30" y="1070" width="300" height="250" as="geometry" />
        </mxCell>
        <mxCell id="XnPeuqubSNgGdzfEI4wK-16" value="Photo" style="html=1;strokeColor=none;fillColor=#0079D6;labelPosition=center;verticalLabelPosition=middle;verticalAlign=top;align=center;fontSize=12;outlineConnect=0;spacingTop=-6;fontColor=#FFFFFF;sketch=0;shape=mxgraph.sitemap.photo;" vertex="1" parent="1">
          <mxGeometry x="540" y="1080" width="430" height="250" as="geometry" />
        </mxCell>
        <mxCell id="XnPeuqubSNgGdzfEI4wK-18" value="" style="rounded=0;whiteSpace=wrap;html=1;fontSize=18;" vertex="1" parent="1">
          <mxGeometry y="1560" width="1060" height="140" as="geometry" />
        </mxCell>
        <mxCell id="XnPeuqubSNgGdzfEI4wK-19" value="" style="image;image=img/lib/atlassian/Clover_Logo.svg;fontSize=18;" vertex="1" parent="1">
          <mxGeometry x="460" y="1570" width="90" height="92.4" as="geometry" />
        </mxCell>
        <mxCell id="XnPeuqubSNgGdzfEI4wK-20" value="logo" style="text;html=1;strokeColor=none;fillColor=none;align=center;verticalAlign=middle;whiteSpace=wrap;rounded=0;fontSize=18;" vertex="1" parent="1">
          <mxGeometry x="470" y="1590" width="51" height="29.5" as="geometry" />
        </mxCell>
        <mxCell id="XnPeuqubSNgGdzfEI4wK-21" value="" style="dashed=0;outlineConnect=0;html=1;align=center;labelPosition=center;verticalLabelPosition=bottom;verticalAlign=top;shape=mxgraph.webicons.facebook;fillColor=#6294E4;gradientColor=#1A2665;fontSize=18;" vertex="1" parent="1">
          <mxGeometry x="20" y="1610" width="40" height="52.4" as="geometry" />
        </mxCell>
        <mxCell id="XnPeuqubSNgGdzfEI4wK-22" value="" style="shape=image;html=1;verticalAlign=top;verticalLabelPosition=bottom;labelBackgroundColor=#ffffff;imageAspect=0;aspect=fixed;image=https://cdn3.iconfinder.com/data/icons/2018-social-media-logotypes/1000/2018_social_media_popular_app_logo_instagram-128.png;fontSize=18;" vertex="1" parent="1">
          <mxGeometry x="80" y="1610" width="48" height="48" as="geometry" />
        </mxCell>
        <mxCell id="XnPeuqubSNgGdzfEI4wK-23" value="" style="dashed=0;outlineConnect=0;html=1;align=center;labelPosition=center;verticalLabelPosition=bottom;verticalAlign=top;shape=mxgraph.webicons.twitter;fillColor=#49EAF7;gradientColor=#137BD0;fontSize=18;" vertex="1" parent="1">
          <mxGeometry x="140" y="1615.6" width="50" height="42.4" as="geometry" />
        </mxCell>
        <mxCell id="XnPeuqubSNgGdzfEI4wK-24" value="&lt;span style=&quot;color: rgb(224 , 187 , 109) ; font-family: &amp;#34;futuramedium&amp;#34; , &amp;#34;arial&amp;#34; , &amp;#34;helvetica&amp;#34; , sans-serif ; font-size: 13px ; text-transform: uppercase ; background-color: rgb(39 , 55 , 77)&quot;&gt;SUIVEZ Notre hotel PARIS&lt;/span&gt;" style="text;html=1;strokeColor=none;fillColor=none;align=center;verticalAlign=middle;whiteSpace=wrap;rounded=0;fontSize=18;" vertex="1" parent="1">
          <mxGeometry x="20" y="1560" width="180" height="30" as="geometry" />
        </mxCell>
        <mxCell id="XnPeuqubSNgGdzfEI4wK-25" value="&lt;h1&gt;Adresse&lt;/h1&gt;&lt;div&gt;56 rue Volter, Paris&lt;/div&gt;" style="text;html=1;strokeColor=none;fillColor=none;spacing=5;spacingTop=-20;whiteSpace=wrap;overflow=hidden;rounded=0;fontSize=18;" vertex="1" parent="1">
          <mxGeometry x="860" y="1570" width="180" height="120" as="geometry" />
        </mxCell>
      </root>
    </mxGraphModel>
  </diagram>
  <diagram id="VbLsGx7KzvJSqhVAwH-y" name="Page-2">
    <mxGraphModel dx="2177" dy="805" grid="1" gridSize="10" guides="1" tooltips="1" connect="1" arrows="1" fold="1" page="1" pageScale="1" pageWidth="827" pageHeight="1169" math="0" shadow="0">
      <root>
        <mxCell id="0aZEbE1d8tf2JQuKWXA5-0" />
        <mxCell id="0aZEbE1d8tf2JQuKWXA5-1" parent="0aZEbE1d8tf2JQuKWXA5-0" />
        <mxCell id="uIGKP0TsHfBoy-fMU65s-0" value="h" style="strokeWidth=1;shadow=0;dashed=0;align=center;html=1;shape=mxgraph.mockup.containers.browserWindow;rSize=0;strokeColor=#666666;mainText=,;recursiveResize=0;rounded=0;labelBackgroundColor=none;fontFamily=Verdana;fontSize=12" vertex="1" parent="0aZEbE1d8tf2JQuKWXA5-1">
          <mxGeometry x="-170" y="60" width="1110" height="1590" as="geometry" />
        </mxCell>
        <mxCell id="uIGKP0TsHfBoy-fMU65s-1" value="Page 1" style="strokeWidth=1;shadow=0;dashed=0;align=center;html=1;shape=mxgraph.mockup.containers.anchor;fontSize=17;fontColor=#666666;align=left;" vertex="1" parent="uIGKP0TsHfBoy-fMU65s-0">
          <mxGeometry x="60" y="12" width="110" height="26" as="geometry" />
        </mxCell>
        <mxCell id="uIGKP0TsHfBoy-fMU65s-2" value="https://www.default.com" style="strokeWidth=1;shadow=0;dashed=0;align=center;html=1;shape=mxgraph.mockup.containers.anchor;rSize=0;fontSize=17;fontColor=#666666;align=left;" vertex="1" parent="uIGKP0TsHfBoy-fMU65s-0">
          <mxGeometry x="130" y="60" width="250" height="26" as="geometry" />
        </mxCell>
        <mxCell id="uIGKP0TsHfBoy-fMU65s-3" value="" style="verticalLabelPosition=bottom;shadow=0;dashed=0;align=center;html=1;verticalAlign=top;strokeWidth=1;shape=mxgraph.mockup.markup.line;strokeColor=#999999;rounded=0;labelBackgroundColor=none;fillColor=#ffffff;fontFamily=Verdana;fontSize=12;fontColor=#000000;" vertex="1" parent="uIGKP0TsHfBoy-fMU65s-0">
          <mxGeometry y="310" width="1050" height="20" as="geometry" />
        </mxCell>
        <mxCell id="uIGKP0TsHfBoy-fMU65s-4" value="Lorem ipsum dolor sit amet, consectetur adipisicing elit, sed do eiusmod tempor incididunt ut labore et dolore magna aliqua. Ut enim ad minim veniam, quis nostrud exercitation ullamco laboris nisi ut aliquip ex ea commodo consequat. Duis aute irure dolor in reprehenderit in voluptate velit esse cillum dolore eu fugiat nulla pariatur. Excepteur sint occaecat cupidatat non proident, sunt in culpa qui officia deserunt mollit anim id est laborum.&#xa;Sed ut perspiciatis unde omnis iste natus error sit voluptatem accusantium doloremque laudantium, totam rem aperiam, eaque ipsa quae ab illo inventore veritatis et quasi architecto beatae vitae dicta sunt explicabo. Nemo enim ipsam voluptatem quia voluptas sit aspernatur aut odit aut fugit, sed quia consequuntur magni dolores eos qui ratione voluptatem sequi nesciunt. Neque porro quisquam est, qui dolorem ipsum quia dolor sit amet, consectetur, adipisci velit, sed quia non numquam eius modi tempora incidunt ut labore et dolore magnam aliquam quaerat voluptatem. Ut enim ad minima veniam, quis nostrum exercitationem ullam corporis suscipit laboriosam, nisi ut aliquid ex ea commodi consequatur? Quis autem vel eum iure reprehenderit qui in ea voluptate velit esse quam nihil molestiae consequatur, vel illum qui dolorem eum fugiat quo voluptas nulla pariatur?" style="text;spacingTop=-5;whiteSpace=wrap;html=1;align=left;fontSize=12;fontFamily=Helvetica;fillColor=none;strokeColor=none;rounded=0;shadow=1;labelBackgroundColor=none;" vertex="1" parent="uIGKP0TsHfBoy-fMU65s-0">
          <mxGeometry x="20" y="380" width="380" height="170" as="geometry" />
        </mxCell>
        <mxCell id="uIGKP0TsHfBoy-fMU65s-5" value="" style="verticalLabelPosition=bottom;shadow=0;dashed=0;align=center;html=1;verticalAlign=top;strokeWidth=1;shape=mxgraph.mockup.markup.line;strokeColor=#999999;rounded=0;labelBackgroundColor=none;fillColor=#ffffff;fontFamily=Verdana;fontSize=12;fontColor=#000000;" vertex="1" parent="uIGKP0TsHfBoy-fMU65s-0">
          <mxGeometry x="4" y="670" width="1050" height="20" as="geometry" />
        </mxCell>
        <mxCell id="uIGKP0TsHfBoy-fMU65s-6" value="secound room" style="text;html=1;points=[];align=center;verticalAlign=top;spacingTop=-4;fontSize=15;fontFamily=Verdana;fontStyle=1" vertex="1" parent="uIGKP0TsHfBoy-fMU65s-0">
          <mxGeometry x="40" y="700" width="290" height="30" as="geometry" />
        </mxCell>
        <mxCell id="uIGKP0TsHfBoy-fMU65s-7" value="logo&amp;nbsp;" style="ellipse;shape=doubleEllipse;whiteSpace=wrap;html=1;aspect=fixed;" vertex="1" parent="uIGKP0TsHfBoy-fMU65s-0">
          <mxGeometry x="420" y="175" width="85" height="85" as="geometry" />
        </mxCell>
        <mxCell id="uIGKP0TsHfBoy-fMU65s-8" value="Home&amp;nbsp; &amp;nbsp; &amp;nbsp; &amp;nbsp; Our rooms&amp;nbsp; &amp;nbsp; &amp;nbsp; &amp;nbsp; &amp;nbsp; &amp;nbsp;Gallery&amp;nbsp; &amp;nbsp; &amp;nbsp; &amp;nbsp; &amp;nbsp;Contact&amp;nbsp; &amp;nbsp; &amp;nbsp; &amp;nbsp; Reserve" style="rounded=0;whiteSpace=wrap;html=1;" vertex="1" parent="uIGKP0TsHfBoy-fMU65s-0">
          <mxGeometry x="80" y="120" width="810" height="30" as="geometry" />
        </mxCell>
        <mxCell id="uIGKP0TsHfBoy-fMU65s-9" value="Hotel name" style="rounded=0;whiteSpace=wrap;html=1;" vertex="1" parent="uIGKP0TsHfBoy-fMU65s-0">
          <mxGeometry x="330" y="260" width="250" height="50" as="geometry" />
        </mxCell>
        <mxCell id="uIGKP0TsHfBoy-fMU65s-10" value="&lt;font style=&quot;font-size: 23px&quot;&gt;OUR ROOMS&lt;/font&gt;" style="rounded=0;whiteSpace=wrap;html=1;" vertex="1" parent="uIGKP0TsHfBoy-fMU65s-0">
          <mxGeometry x="230" y="330" width="570" height="30" as="geometry" />
        </mxCell>
        <mxCell id="uIGKP0TsHfBoy-fMU65s-11" value="Photo" style="html=1;strokeColor=none;fillColor=#0079D6;labelPosition=center;verticalLabelPosition=middle;verticalAlign=top;align=center;fontSize=12;outlineConnect=0;spacingTop=-6;fontColor=#FFFFFF;sketch=0;shape=mxgraph.sitemap.photo;" vertex="1" parent="uIGKP0TsHfBoy-fMU65s-0">
          <mxGeometry x="570" y="400" width="410" height="220" as="geometry" />
        </mxCell>
        <mxCell id="uIGKP0TsHfBoy-fMU65s-12" value="Lorem ipsum dolor sit amet, consectetur adipisicing elit, sed do eiusmod tempor incididunt ut labore et dolore magna aliqua. Ut enim ad minim veniam, quis nostrud exercitation ullamco laboris nisi ut aliquip ex ea commodo consequat. Duis aute irure dolor in reprehenderit in voluptate velit esse cillum dolore eu fugiat nulla pariatur. Excepteur sint occaecat cupidatat non proident, sunt in culpa qui officia deserunt mollit anim id est laborum.&lt;br&gt;Sed ut perspiciatis unde omnis iste natus error sit voluptatem accusantium doloremque laudantium, totam rem aperiam, eaque ipsa quae ab illo inventore veritatis et quasi architecto beatae vitae dicta sunt explicabo.&amp;nbsp;" style="text;spacingTop=-5;whiteSpace=wrap;html=1;align=left;fontSize=12;fontFamily=Helvetica;fillColor=none;strokeColor=none;rounded=0;shadow=1;labelBackgroundColor=none;" vertex="1" parent="uIGKP0TsHfBoy-fMU65s-0">
          <mxGeometry x="564" y="763.75" width="490" height="212.5" as="geometry" />
        </mxCell>
        <mxCell id="uIGKP0TsHfBoy-fMU65s-13" value="Photo" style="html=1;strokeColor=none;fillColor=#0079D6;labelPosition=center;verticalLabelPosition=middle;verticalAlign=top;align=center;fontSize=12;outlineConnect=0;spacingTop=-6;fontColor=#FFFFFF;sketch=0;shape=mxgraph.sitemap.photo;" vertex="1" parent="uIGKP0TsHfBoy-fMU65s-0">
          <mxGeometry x="30" y="746.25" width="370" height="230" as="geometry" />
        </mxCell>
        <mxCell id="uIGKP0TsHfBoy-fMU65s-14" value="Reservation" style="labelPosition=center;verticalLabelPosition=middle;align=center;html=1;shape=mxgraph.basic.button;dx=10;fontSize=18;" vertex="1" parent="uIGKP0TsHfBoy-fMU65s-0">
          <mxGeometry x="150" y="990" width="150" height="50" as="geometry" />
        </mxCell>
        <mxCell id="jgUOny4q5-QIgVUCRH1Q-1" value="Reservation" style="labelPosition=center;verticalLabelPosition=middle;align=center;html=1;shape=mxgraph.basic.button;dx=10;fontSize=18;" vertex="1" parent="uIGKP0TsHfBoy-fMU65s-0">
          <mxGeometry x="710" y="630" width="150" height="40" as="geometry" />
        </mxCell>
        <mxCell id="jgUOny4q5-QIgVUCRH1Q-2" value="Photo" style="html=1;strokeColor=none;fillColor=#0079D6;labelPosition=center;verticalLabelPosition=middle;verticalAlign=top;align=center;fontSize=12;outlineConnect=0;spacingTop=-6;fontColor=#FFFFFF;sketch=0;shape=mxgraph.sitemap.photo;" vertex="1" parent="uIGKP0TsHfBoy-fMU65s-0">
          <mxGeometry x="627" y="1090" width="370" height="230" as="geometry" />
        </mxCell>
        <mxCell id="jgUOny4q5-QIgVUCRH1Q-3" value="Lorem ipsum dolor sit amet, consectetur adipisicing elit, sed do eiusmod tempor incididunt ut labore et dolore magna aliqua. Ut enim ad minim veniam, quis nostrud exercitation ullamco laboris nisi ut aliquip ex ea commodo consequat. Duis aute irure dolor in reprehenderit in voluptate velit esse cillum dolore eu fugiat nulla pariatur. Excepteur sint occaecat cupidatat non proident, sunt in culpa qui officia deserunt mollit anim id est laborum.&lt;br&gt;Sed ut perspiciatis unde omnis iste natus error sit voluptatem accusantium doloremque laudantium, totam rem aperiam, eaque ipsa quae ab illo inventore veritatis et quasi architecto beatae vitae dicta sunt explicabo.&amp;nbsp;" style="text;spacingTop=-5;whiteSpace=wrap;html=1;align=left;fontSize=12;fontFamily=Helvetica;fillColor=none;strokeColor=none;rounded=0;shadow=1;labelBackgroundColor=none;" vertex="1" parent="uIGKP0TsHfBoy-fMU65s-0">
          <mxGeometry x="40" y="1137.5" width="490" height="212.5" as="geometry" />
        </mxCell>
        <mxCell id="jgUOny4q5-QIgVUCRH1Q-4" value="" style="verticalLabelPosition=bottom;shadow=0;dashed=0;align=center;html=1;verticalAlign=top;strokeWidth=1;shape=mxgraph.mockup.markup.line;strokeColor=#999999;rounded=0;labelBackgroundColor=none;fillColor=#ffffff;fontFamily=Verdana;fontSize=12;fontColor=#000000;" vertex="1" parent="uIGKP0TsHfBoy-fMU65s-0">
          <mxGeometry x="20" y="1050" width="1050" height="20" as="geometry" />
        </mxCell>
        <mxCell id="jgUOny4q5-QIgVUCRH1Q-5" value="third room" style="text;html=1;points=[];align=center;verticalAlign=top;spacingTop=-4;fontSize=15;fontFamily=Verdana;fontStyle=1" vertex="1" parent="uIGKP0TsHfBoy-fMU65s-0">
          <mxGeometry x="50" y="1079" width="290" height="30" as="geometry" />
        </mxCell>
        <mxCell id="jgUOny4q5-QIgVUCRH1Q-6" value="Reservation" style="labelPosition=center;verticalLabelPosition=middle;align=center;html=1;shape=mxgraph.basic.button;dx=10;fontSize=18;" vertex="1" parent="uIGKP0TsHfBoy-fMU65s-0">
          <mxGeometry x="750" y="1320" width="150" height="40" as="geometry" />
        </mxCell>
        <mxCell id="Fcb1x0b5ppNhonSFBiH0-0" value="" style="rounded=0;whiteSpace=wrap;html=1;fontSize=23;align=center;" vertex="1" parent="uIGKP0TsHfBoy-fMU65s-0">
          <mxGeometry y="1470" width="1110" height="110" as="geometry" />
        </mxCell>
        <mxCell id="Fcb1x0b5ppNhonSFBiH0-1" value="FOOTER" style="text;html=1;strokeColor=none;fillColor=none;align=center;verticalAlign=middle;whiteSpace=wrap;rounded=0;fontSize=23;fontStyle=1" vertex="1" parent="uIGKP0TsHfBoy-fMU65s-0">
          <mxGeometry x="200" y="1500" width="520" height="50" as="geometry" />
        </mxCell>
      </root>
    </mxGraphModel>
  </diagram>
  <diagram id="Xs26bpyFCE1FemJBMiFB" name="Page-3">
    <mxGraphModel dx="2177" dy="1974" grid="1" gridSize="10" guides="1" tooltips="1" connect="1" arrows="1" fold="1" page="1" pageScale="1" pageWidth="827" pageHeight="1169" math="0" shadow="0">
      <root>
        <mxCell id="3qzmDEW6o9i7ZGlNiAuT-0" />
        <mxCell id="3qzmDEW6o9i7ZGlNiAuT-1" parent="3qzmDEW6o9i7ZGlNiAuT-0" />
        <mxCell id="SHv4ZSTtYfp7jYruo2c7-0" value="h" style="strokeWidth=1;shadow=0;dashed=0;align=center;html=1;shape=mxgraph.mockup.containers.browserWindow;rSize=0;strokeColor=#666666;mainText=,;recursiveResize=0;rounded=0;labelBackgroundColor=none;fontFamily=Verdana;fontSize=12" vertex="1" parent="3qzmDEW6o9i7ZGlNiAuT-1">
          <mxGeometry x="-160" y="-200" width="1110" height="1590" as="geometry" />
        </mxCell>
        <mxCell id="SHv4ZSTtYfp7jYruo2c7-1" value="Page 1" style="strokeWidth=1;shadow=0;dashed=0;align=center;html=1;shape=mxgraph.mockup.containers.anchor;fontSize=17;fontColor=#666666;align=left;" vertex="1" parent="SHv4ZSTtYfp7jYruo2c7-0">
          <mxGeometry x="60" y="12" width="110" height="26" as="geometry" />
        </mxCell>
        <mxCell id="SHv4ZSTtYfp7jYruo2c7-2" value="https://www.default.com" style="strokeWidth=1;shadow=0;dashed=0;align=center;html=1;shape=mxgraph.mockup.containers.anchor;rSize=0;fontSize=17;fontColor=#666666;align=left;" vertex="1" parent="SHv4ZSTtYfp7jYruo2c7-0">
          <mxGeometry x="130" y="60" width="250" height="26" as="geometry" />
        </mxCell>
        <mxCell id="SHv4ZSTtYfp7jYruo2c7-3" value="" style="verticalLabelPosition=bottom;shadow=0;dashed=0;align=center;html=1;verticalAlign=top;strokeWidth=1;shape=mxgraph.mockup.markup.line;strokeColor=#999999;rounded=0;labelBackgroundColor=none;fillColor=#ffffff;fontFamily=Verdana;fontSize=12;fontColor=#000000;" vertex="1" parent="SHv4ZSTtYfp7jYruo2c7-0">
          <mxGeometry y="310" width="1050" height="20" as="geometry" />
        </mxCell>
        <mxCell id="SHv4ZSTtYfp7jYruo2c7-7" value="logo&amp;nbsp;" style="ellipse;shape=doubleEllipse;whiteSpace=wrap;html=1;aspect=fixed;" vertex="1" parent="SHv4ZSTtYfp7jYruo2c7-0">
          <mxGeometry x="420" y="175" width="85" height="85" as="geometry" />
        </mxCell>
        <mxCell id="SHv4ZSTtYfp7jYruo2c7-8" value="Home&amp;nbsp; &amp;nbsp; &amp;nbsp; &amp;nbsp; Our rooms&amp;nbsp; &amp;nbsp; &amp;nbsp; &amp;nbsp; &amp;nbsp; &amp;nbsp;Gallery&amp;nbsp; &amp;nbsp; &amp;nbsp; &amp;nbsp; &amp;nbsp;Contact&amp;nbsp; &amp;nbsp; &amp;nbsp; &amp;nbsp; Reserve" style="rounded=0;whiteSpace=wrap;html=1;" vertex="1" parent="SHv4ZSTtYfp7jYruo2c7-0">
          <mxGeometry x="80" y="120" width="810" height="30" as="geometry" />
        </mxCell>
        <mxCell id="SHv4ZSTtYfp7jYruo2c7-9" value="Hotel name" style="rounded=0;whiteSpace=wrap;html=1;" vertex="1" parent="SHv4ZSTtYfp7jYruo2c7-0">
          <mxGeometry x="330" y="260" width="250" height="50" as="geometry" />
        </mxCell>
        <mxCell id="SHv4ZSTtYfp7jYruo2c7-10" value="&lt;span style=&quot;font-size: 23px&quot;&gt;RESERVATION&lt;/span&gt;" style="rounded=0;whiteSpace=wrap;html=1;" vertex="1" parent="SHv4ZSTtYfp7jYruo2c7-0">
          <mxGeometry x="230" y="330" width="570" height="30" as="geometry" />
        </mxCell>
        <mxCell id="SHv4ZSTtYfp7jYruo2c7-21" value="" style="rounded=0;whiteSpace=wrap;html=1;fontSize=23;align=center;" vertex="1" parent="SHv4ZSTtYfp7jYruo2c7-0">
          <mxGeometry y="1470" width="1110" height="110" as="geometry" />
        </mxCell>
        <mxCell id="SHv4ZSTtYfp7jYruo2c7-22" value="FOOTER" style="text;html=1;strokeColor=none;fillColor=none;align=center;verticalAlign=middle;whiteSpace=wrap;rounded=0;fontSize=23;fontStyle=1" vertex="1" parent="SHv4ZSTtYfp7jYruo2c7-0">
          <mxGeometry x="200" y="1500" width="520" height="50" as="geometry" />
        </mxCell>
        <mxCell id="OXd1y8roMdUe50l47i7h-27" value="Email address" style="fillColor=none;strokeColor=none;align=left;fontSize=14;" vertex="1" parent="SHv4ZSTtYfp7jYruo2c7-0">
          <mxGeometry x="150" y="570" width="260" height="40" as="geometry" />
        </mxCell>
        <mxCell id="OXd1y8roMdUe50l47i7h-28" value="Nom et prénom" style="html=1;shadow=0;dashed=0;shape=mxgraph.bootstrap.rrect;rSize=5;fillColor=none;strokeColor=#999999;align=left;spacing=15;fontSize=14;fontColor=#6C767D;" vertex="1" parent="SHv4ZSTtYfp7jYruo2c7-0">
          <mxGeometry width="800" height="30" relative="1" as="geometry">
            <mxPoint x="55" y="410" as="offset" />
          </mxGeometry>
        </mxCell>
        <mxCell id="OXd1y8roMdUe50l47i7h-29" value="Example select" style="fillColor=none;strokeColor=none;align=left;fontSize=14;" vertex="1" parent="SHv4ZSTtYfp7jYruo2c7-0">
          <mxGeometry width="260" height="40" relative="1" as="geometry">
            <mxPoint x="50" y="440" as="offset" />
          </mxGeometry>
        </mxCell>
        <mxCell id="OXd1y8roMdUe50l47i7h-30" value="1" style="html=1;shadow=0;dashed=0;shape=mxgraph.bootstrap.rrect;rSize=5;fillColor=none;strokeColor=#999999;align=left;spacing=15;fontSize=14;fontColor=#6C767D;" vertex="1" parent="SHv4ZSTtYfp7jYruo2c7-0">
          <mxGeometry width="800" height="30" relative="1" as="geometry">
            <mxPoint x="50" y="480" as="offset" />
          </mxGeometry>
        </mxCell>
        <mxCell id="OXd1y8roMdUe50l47i7h-31" value="Example multiple select" style="fillColor=none;strokeColor=none;align=left;fontSize=14;" vertex="1" parent="SHv4ZSTtYfp7jYruo2c7-0">
          <mxGeometry width="260" height="40" relative="1" as="geometry">
            <mxPoint x="50" y="520" as="offset" />
          </mxGeometry>
        </mxCell>
        <mxCell id="OXd1y8roMdUe50l47i7h-32" value="" style="html=1;shadow=0;dashed=0;shape=mxgraph.bootstrap.rrect;rSize=5;fillColor=none;strokeColor=#999999;align=left;spacing=15;fontSize=14;fontColor=#6C767D;" vertex="1" parent="SHv4ZSTtYfp7jYruo2c7-0">
          <mxGeometry width="800" height="100" relative="1" as="geometry">
            <mxPoint x="50" y="560" as="offset" />
          </mxGeometry>
        </mxCell>
        <mxCell id="OXd1y8roMdUe50l47i7h-33" value="" style="html=1;shadow=0;dashed=0;shape=mxgraph.bootstrap.rightButton;rSize=5;fillColor=#F1F1F1;strokeColor=#999999;fontSize=23;align=center;" vertex="1" parent="OXd1y8roMdUe50l47i7h-32">
          <mxGeometry x="1" width="20" height="100" relative="1" as="geometry">
            <mxPoint x="-20" as="offset" />
          </mxGeometry>
        </mxCell>
        <mxCell id="OXd1y8roMdUe50l47i7h-34" value="" style="fillColor=#C1C1C1;strokeColor=none;fontSize=23;align=center;" vertex="1" parent="OXd1y8roMdUe50l47i7h-33">
          <mxGeometry width="16" height="45" relative="1" as="geometry">
            <mxPoint x="2" y="20" as="offset" />
          </mxGeometry>
        </mxCell>
        <mxCell id="OXd1y8roMdUe50l47i7h-35" value="" style="shape=triangle;direction=north;fillColor=#C1C1C1;strokeColor=none;perimeter=none;fontSize=23;align=center;" vertex="1" parent="OXd1y8roMdUe50l47i7h-33">
          <mxGeometry width="10" height="5" relative="1" as="geometry">
            <mxPoint x="5" y="7.5" as="offset" />
          </mxGeometry>
        </mxCell>
        <mxCell id="OXd1y8roMdUe50l47i7h-36" value="" style="shape=triangle;direction=south;fillColor=#505050;strokeColor=none;perimeter=none;fontSize=23;align=center;" vertex="1" parent="OXd1y8roMdUe50l47i7h-33">
          <mxGeometry y="1" width="10" height="5" relative="1" as="geometry">
            <mxPoint x="5" y="-12.5" as="offset" />
          </mxGeometry>
        </mxCell>
        <mxCell id="OXd1y8roMdUe50l47i7h-37" value="1" style="fillColor=none;strokeColor=none;align=left;spacing=15;fontSize=14;fontColor=#6C767D;" vertex="1" parent="OXd1y8roMdUe50l47i7h-32">
          <mxGeometry width="780" height="20" relative="1" as="geometry">
            <mxPoint y="10" as="offset" />
          </mxGeometry>
        </mxCell>
        <mxCell id="OXd1y8roMdUe50l47i7h-39" value="3" style="fillColor=none;strokeColor=none;align=left;spacing=15;fontSize=14;fontColor=#6C767D;" vertex="1" parent="OXd1y8roMdUe50l47i7h-32">
          <mxGeometry width="780" height="20" relative="1" as="geometry">
            <mxPoint y="50" as="offset" />
          </mxGeometry>
        </mxCell>
        <mxCell id="OXd1y8roMdUe50l47i7h-40" value="4" style="fillColor=none;strokeColor=none;align=left;spacing=15;fontSize=14;fontColor=#6C767D;" vertex="1" parent="OXd1y8roMdUe50l47i7h-32">
          <mxGeometry width="780" height="20" relative="1" as="geometry">
            <mxPoint y="70" as="offset" />
          </mxGeometry>
        </mxCell>
        <mxCell id="OXd1y8roMdUe50l47i7h-41" value="Example textarea" style="fillColor=none;strokeColor=none;align=left;fontSize=14;" vertex="1" parent="SHv4ZSTtYfp7jYruo2c7-0">
          <mxGeometry width="260" height="40" relative="1" as="geometry">
            <mxPoint x="50" y="670" as="offset" />
          </mxGeometry>
        </mxCell>
        <mxCell id="OXd1y8roMdUe50l47i7h-42" value="" style="html=1;shadow=0;dashed=0;shape=mxgraph.bootstrap.rrect;rSize=5;fillColor=none;strokeColor=#999999;align=left;spacing=15;fontSize=14;fontColor=#6C767D;" vertex="1" parent="SHv4ZSTtYfp7jYruo2c7-0">
          <mxGeometry width="800" height="90" relative="1" as="geometry">
            <mxPoint x="50" y="710" as="offset" />
          </mxGeometry>
        </mxCell>
        <mxCell id="u6bGcOaiWKr1QstpIL_O-0" value="&lt;div&gt;&lt;br&gt;&lt;/div&gt;&lt;div&gt;Nom *&lt;/div&gt;&lt;div&gt;Prénom *&lt;/div&gt;&lt;div&gt;Email * (! email valide)&lt;/div&gt;&lt;div&gt;Téléphone *&lt;/div&gt;&lt;div&gt;Adresse&lt;/div&gt;&lt;div&gt;Ville&lt;/div&gt;&lt;div&gt;Un champ date picker (input type date) *&lt;/div&gt;&lt;div&gt;* L’utilisateur devra obligatoirement renseigner ces champs&lt;/div&gt;&lt;div&gt;Un sélecteur pour choisir le mode de paiement :&lt;/div&gt;&lt;div&gt;• Master Card&lt;/div&gt;&lt;div&gt;• Diners Club&lt;/div&gt;&lt;div&gt;• American Express&lt;/div&gt;&lt;div&gt;• Visa&lt;/div&gt;&lt;div&gt;• JCB&lt;/div&gt;" style="text;html=1;strokeColor=none;fillColor=none;align=center;verticalAlign=middle;whiteSpace=wrap;rounded=0;fontSize=23;" vertex="1" parent="3qzmDEW6o9i7ZGlNiAuT-1">
          <mxGeometry x="-40" y="950" width="990" height="180" as="geometry" />
        </mxCell>
        <mxCell id="OXd1y8roMdUe50l47i7h-43" value="Text" style="text;html=1;strokeColor=none;fillColor=none;align=center;verticalAlign=middle;whiteSpace=wrap;rounded=0;fontSize=23;" vertex="1" parent="3qzmDEW6o9i7ZGlNiAuT-1">
          <mxGeometry x="380" y="240" width="60" height="30" as="geometry" />
        </mxCell>
        <mxCell id="OXd1y8roMdUe50l47i7h-46" value="h" style="strokeWidth=1;shadow=0;dashed=0;align=center;html=1;shape=mxgraph.mockup.containers.browserWindow;rSize=0;strokeColor=#666666;mainText=,;recursiveResize=0;rounded=0;labelBackgroundColor=none;fontFamily=Verdana;fontSize=12" vertex="1" parent="3qzmDEW6o9i7ZGlNiAuT-1">
          <mxGeometry x="-160" y="-240" width="1110" height="1590" as="geometry" />
        </mxCell>
        <mxCell id="OXd1y8roMdUe50l47i7h-47" value="Page 1" style="strokeWidth=1;shadow=0;dashed=0;align=center;html=1;shape=mxgraph.mockup.containers.anchor;fontSize=17;fontColor=#666666;align=left;" vertex="1" parent="OXd1y8roMdUe50l47i7h-46">
          <mxGeometry x="60" y="12" width="110" height="26" as="geometry" />
        </mxCell>
        <mxCell id="OXd1y8roMdUe50l47i7h-48" value="https://www.default.com" style="strokeWidth=1;shadow=0;dashed=0;align=center;html=1;shape=mxgraph.mockup.containers.anchor;rSize=0;fontSize=17;fontColor=#666666;align=left;" vertex="1" parent="OXd1y8roMdUe50l47i7h-46">
          <mxGeometry x="130" y="60" width="250" height="26" as="geometry" />
        </mxCell>
        <mxCell id="OXd1y8roMdUe50l47i7h-49" value="" style="verticalLabelPosition=bottom;shadow=0;dashed=0;align=center;html=1;verticalAlign=top;strokeWidth=1;shape=mxgraph.mockup.markup.line;strokeColor=#999999;rounded=0;labelBackgroundColor=none;fillColor=#ffffff;fontFamily=Verdana;fontSize=12;fontColor=#000000;" vertex="1" parent="OXd1y8roMdUe50l47i7h-46">
          <mxGeometry y="310" width="1050" height="20" as="geometry" />
        </mxCell>
        <mxCell id="OXd1y8roMdUe50l47i7h-50" value="logo&amp;nbsp;" style="ellipse;shape=doubleEllipse;whiteSpace=wrap;html=1;aspect=fixed;" vertex="1" parent="OXd1y8roMdUe50l47i7h-46">
          <mxGeometry x="420" y="175" width="85" height="85" as="geometry" />
        </mxCell>
        <mxCell id="OXd1y8roMdUe50l47i7h-51" value="Home&amp;nbsp; &amp;nbsp; &amp;nbsp; &amp;nbsp; Our rooms&amp;nbsp; &amp;nbsp; &amp;nbsp; &amp;nbsp; &amp;nbsp; &amp;nbsp;Gallery&amp;nbsp; &amp;nbsp; &amp;nbsp; &amp;nbsp; &amp;nbsp;Contact&amp;nbsp; &amp;nbsp; &amp;nbsp; &amp;nbsp; Reserve" style="rounded=0;whiteSpace=wrap;html=1;" vertex="1" parent="OXd1y8roMdUe50l47i7h-46">
          <mxGeometry x="80" y="120" width="810" height="30" as="geometry" />
        </mxCell>
        <mxCell id="OXd1y8roMdUe50l47i7h-52" value="Hotel name" style="rounded=0;whiteSpace=wrap;html=1;" vertex="1" parent="OXd1y8roMdUe50l47i7h-46">
          <mxGeometry x="330" y="260" width="250" height="50" as="geometry" />
        </mxCell>
        <mxCell id="OXd1y8roMdUe50l47i7h-53" value="&lt;span style=&quot;font-size: 23px&quot;&gt;RESERVATION&lt;/span&gt;" style="rounded=0;whiteSpace=wrap;html=1;" vertex="1" parent="OXd1y8roMdUe50l47i7h-46">
          <mxGeometry x="230" y="330" width="570" height="30" as="geometry" />
        </mxCell>
        <mxCell id="OXd1y8roMdUe50l47i7h-54" value="" style="rounded=0;whiteSpace=wrap;html=1;fontSize=23;align=center;" vertex="1" parent="OXd1y8roMdUe50l47i7h-46">
          <mxGeometry y="1470" width="1110" height="110" as="geometry" />
        </mxCell>
        <mxCell id="OXd1y8roMdUe50l47i7h-55" value="FOOTER" style="text;html=1;strokeColor=none;fillColor=none;align=center;verticalAlign=middle;whiteSpace=wrap;rounded=0;fontSize=23;fontStyle=1" vertex="1" parent="OXd1y8roMdUe50l47i7h-46">
          <mxGeometry x="200" y="1500" width="520" height="50" as="geometry" />
        </mxCell>
        <mxCell id="OXd1y8roMdUe50l47i7h-57" value="Nom et prénom" style="html=1;shadow=0;dashed=0;shape=mxgraph.bootstrap.rrect;rSize=5;fillColor=none;strokeColor=#999999;align=left;spacing=15;fontSize=14;fontColor=#6C767D;" vertex="1" parent="OXd1y8roMdUe50l47i7h-46">
          <mxGeometry width="800" height="30" relative="1" as="geometry">
            <mxPoint x="55" y="410" as="offset" />
          </mxGeometry>
        </mxCell>
        <mxCell id="OXd1y8roMdUe50l47i7h-58" value="Email" style="fillColor=none;strokeColor=none;align=left;fontSize=14;" vertex="1" parent="OXd1y8roMdUe50l47i7h-46">
          <mxGeometry width="260" height="40" relative="1" as="geometry">
            <mxPoint x="50" y="440" as="offset" />
          </mxGeometry>
        </mxCell>
        <mxCell id="OXd1y8roMdUe50l47i7h-59" value="votre email" style="html=1;shadow=0;dashed=0;shape=mxgraph.bootstrap.rrect;rSize=5;fillColor=none;strokeColor=#999999;align=left;spacing=15;fontSize=14;fontColor=#6C767D;" vertex="1" parent="OXd1y8roMdUe50l47i7h-46">
          <mxGeometry width="800" height="30" relative="1" as="geometry">
            <mxPoint x="50" y="480" as="offset" />
          </mxGeometry>
        </mxCell>
        <mxCell id="OXd1y8roMdUe50l47i7h-60" value="Telephone" style="fillColor=none;strokeColor=none;align=left;fontSize=14;" vertex="1" parent="OXd1y8roMdUe50l47i7h-46">
          <mxGeometry width="260" height="40" relative="1" as="geometry">
            <mxPoint x="50" y="520" as="offset" />
          </mxGeometry>
        </mxCell>
        <mxCell id="OXd1y8roMdUe50l47i7h-69" value="Adressse" style="fillColor=none;strokeColor=none;align=left;fontSize=14;" vertex="1" parent="OXd1y8roMdUe50l47i7h-46">
          <mxGeometry width="260" height="40" relative="1" as="geometry">
            <mxPoint x="50" y="600" as="offset" />
          </mxGeometry>
        </mxCell>
        <mxCell id="OXd1y8roMdUe50l47i7h-70" value="" style="html=1;shadow=0;dashed=0;shape=mxgraph.bootstrap.rrect;rSize=5;fillColor=none;strokeColor=#999999;align=left;spacing=15;fontSize=14;fontColor=#6C767D;" vertex="1" parent="OXd1y8roMdUe50l47i7h-46">
          <mxGeometry width="800" height="90" relative="1" as="geometry">
            <mxPoint x="50" y="630" as="offset" />
          </mxGeometry>
        </mxCell>
        <mxCell id="OXd1y8roMdUe50l47i7h-71" value="Nom et prénom" style="fillColor=none;strokeColor=none;align=left;fontSize=14;" vertex="1" parent="OXd1y8roMdUe50l47i7h-46">
          <mxGeometry width="260" height="40" relative="1" as="geometry">
            <mxPoint x="60" y="370" as="offset" />
          </mxGeometry>
        </mxCell>
        <mxCell id="OXd1y8roMdUe50l47i7h-72" value="votre télephone" style="html=1;shadow=0;dashed=0;shape=mxgraph.bootstrap.rrect;rSize=5;fillColor=none;strokeColor=#999999;align=left;spacing=15;fontSize=14;fontColor=#6C767D;" vertex="1" parent="OXd1y8roMdUe50l47i7h-46">
          <mxGeometry width="800" height="30" relative="1" as="geometry">
            <mxPoint x="50" y="560" as="offset" />
          </mxGeometry>
        </mxCell>
        <mxCell id="OXd1y8roMdUe50l47i7h-73" value="Un champ date picker (input type date)&amp;nbsp;" style="html=1;shadow=0;dashed=0;shape=mxgraph.bootstrap.rrect;rSize=5;fillColor=none;strokeColor=#999999;align=left;spacing=15;fontSize=14;fontColor=#6C767D;" vertex="1" parent="OXd1y8roMdUe50l47i7h-46">
          <mxGeometry width="800" height="30" relative="1" as="geometry">
            <mxPoint x="50" y="750" as="offset" />
          </mxGeometry>
        </mxCell>
        <mxCell id="OXd1y8roMdUe50l47i7h-74" value="" style="strokeWidth=1;shadow=0;dashed=0;align=center;html=1;shape=mxgraph.mockup.forms.rrect;rSize=0;strokeColor=#999999;fillColor=#ffffff;recursiveResize=0;fontSize=23;" vertex="1" parent="OXd1y8roMdUe50l47i7h-46">
          <mxGeometry x="394" y="900" width="180" height="190" as="geometry" />
        </mxCell>
        <mxCell id="OXd1y8roMdUe50l47i7h-75" value="Master card" style="strokeWidth=1;shadow=0;dashed=0;align=center;html=1;shape=mxgraph.mockup.forms.rrect;rSize=0;fillColor=#eeeeee;strokeColor=#999999;gradientColor=#cccccc;align=left;spacingLeft=4;fontSize=17;fontColor=#666666;labelPosition=right;" vertex="1" parent="OXd1y8roMdUe50l47i7h-74">
          <mxGeometry x="8" y="7.5" width="15" height="15" as="geometry" />
        </mxCell>
        <mxCell id="OXd1y8roMdUe50l47i7h-76" value="Diners Club" style="strokeWidth=1;shadow=0;dashed=0;align=center;html=1;shape=mxgraph.mockup.forms.rrect;rSize=0;fillColor=#eeeeee;strokeColor=#999999;gradientColor=#cccccc;align=left;spacingLeft=4;fontSize=17;fontColor=#666666;labelPosition=right;" vertex="1" parent="OXd1y8roMdUe50l47i7h-74">
          <mxGeometry x="8" y="37.5" width="15" height="15" as="geometry" />
        </mxCell>
        <mxCell id="OXd1y8roMdUe50l47i7h-77" value="American Express" style="strokeWidth=1;shadow=0;dashed=0;align=center;html=1;shape=mxgraph.mockup.forms.checkbox;rSize=0;resizable=0;fillColor=#aaaaaa;strokeColor=#444444;gradientColor=#666666;align=left;spacingLeft=4;fontSize=17;fontColor=#008cff;labelPosition=right;" vertex="1" parent="OXd1y8roMdUe50l47i7h-74">
          <mxGeometry x="8" y="67.5" width="15" height="15" as="geometry" />
        </mxCell>
        <mxCell id="OXd1y8roMdUe50l47i7h-78" value="Visa" style="strokeWidth=1;shadow=0;dashed=0;align=center;html=1;shape=mxgraph.mockup.forms.rrect;rSize=0;fillColor=#eeeeee;strokeColor=#999999;gradientColor=#cccccc;align=left;spacingLeft=4;fontSize=17;fontColor=#666666;labelPosition=right;" vertex="1" parent="OXd1y8roMdUe50l47i7h-74">
          <mxGeometry x="8" y="97.5" width="15" height="15" as="geometry" />
        </mxCell>
        <mxCell id="OXd1y8roMdUe50l47i7h-84" value="JSB" style="text;html=1;strokeColor=none;fillColor=none;align=center;verticalAlign=middle;whiteSpace=wrap;rounded=0;fontSize=23;" vertex="1" parent="OXd1y8roMdUe50l47i7h-74">
          <mxGeometry x="30" y="120" width="40" height="10" as="geometry" />
        </mxCell>
        <mxCell id="OXd1y8roMdUe50l47i7h-85" value="&lt;span style=&quot;font-size: 23px&quot;&gt;choisir le mode de paiement :&lt;/span&gt;" style="rounded=0;whiteSpace=wrap;html=1;" vertex="1" parent="OXd1y8roMdUe50l47i7h-46">
          <mxGeometry x="200" y="860" width="570" height="30" as="geometry" />
        </mxCell>
      </root>
    </mxGraphModel>
  </diagram>
</mxfile>
